{"accessors" : [{"bufferView" : 0, "byteOffset" : 0, "componentType" : 5123, "count" : 2886, "type" : "SCALAR", "max" : [2885], "min" : [0]}, {"bufferView" : 1, "byteOffset" : 0, "componentType" : 5126, "count" : 2886, "type" : "VEC3", "max" : [3.20702862739563, 0.9716522693634033, 3.5553905963897705], "min" : [-3.20702862739563, -1.2247661352157593, -10.862861633300781], "name" : "POSITION"}, {"bufferView" : 1, "byteOffset" : 12, "componentType" : 5126, "count" : 2886, "type" : "VEC3", "max" : [0.9997549057006836, 0.9999957084655762, 1.0000044107437134], "min" : [-0.9997549057006836, -0.9969738125801086, -0.9442930817604065], "name" : "NORMAL"}, {"bufferView" : 1, "byteOffset" : 24, "componentType" : 5126, "count" : 2886, "type" : "VEC2", "max" : [0.7500001192092896, -0], "min" : [0, -1], "name" : "TEXCOORD_0"}], "asset" : {"generator" : "Aspose.3D 22.1", "version" : "2.0"}, "buffers" : [{"uri" : "data:application/octet-stream;base64,", "byteLength" : 98132}], "bufferViews" : [{"buffer" : 0, "byteOffset" : 0, "byteLength" : 5772, "target" : 34963}, {"buffer" : 0, "byteOffset" : 5776, "byteLength" : 92352, "byteStride" : 32, "target" : 34962}], "cameras" : [{"perspective" : {"aspectRatio" : 1.5, "yfov" : 0.6911112070083618, "zfar" : 10000, "znear" : 10.000000149011612}, "type" : "perspective", "name" : "Camera"}], "meshes" : [{"primitives" : [{"attributes" : {"POSITION" : 1, "NORMAL" : 2, "TEXCOORD_0" : 3}, "indices" : 0, "mode" : 4}], "name" : "Cube.003"}], "nodes" : [{"camera" : 0, "matrix" : [-82.1479575342018, 16.993465826189638, -54.43285030359066, 0, 5.397021042813744, 97.34486397177594, 22.24525001115588, 0, 56.76781438050527, 15.336263807324928, -80.88394610189214, 0, 735.88916015625, 495.8309326171875, 692.5791015625, 1], "name" : "Camera"}, {"matrix" : [32.93644332885742, 0, 0, 0, 0, -5.366027731201364E-06, -32.93644332885699, 0, 0, 32.93644332885699, -5.366027731201364E-06, 0, 0, 119.20335388183594, 0, 1], "mesh" : 0, "name" : "Cube"}], "scene" : 0, "scenes" : [{"nodes" : [0, 1]}]}