<svg xmlns="http://www.w3.org/2000/svg" viewBox="0 0 113.49715 35.15752">
  <defs>
    <style>
      .cls-1 {
        fill: #fff;
      }
    </style>
  </defs>
  <title>logo_ecal_white</title>
  <g id="Layer_2" data-name="Layer 2">
    <g id="Layer_1-2" data-name="Layer 1">
      <path class="cls-1" d="M20.63162,0H12.26083L8.9124,6.35189h6.155L20.63162,0ZM18.0711,27.08207A5.25672,5.25672,0,0,1,13.098,29.83963c-3.15144,0-5.76127-1.87132-6.10571-6.30274H25.35867v-.64036c0-8.32139-4.13622-14.57507-12.60546-14.57507C4.97314,8.32146,0,14.08275,0,21.71473,0,29.3472,4.72705,35.10821,12.99932,35.10821c6.1059,0,10.29124-3.20047,12.06394-8.02614ZM12.75321,13.34385a5.45655,5.45655,0,0,1,5.66263,5.66263H7.09058c.29542-3.24968,2.36353-5.66263,5.66263-5.66263M51.45567,17.5785c-.68923-5.564-5.26858-9.257-11.62063-9.257-8.02613,0-12.99952,5.56421-12.99952,13.39327,0,8.02607,4.62866,13.39348,12.95022,13.39348,6.59815,0,10.88209-3.74221,11.86694-9.25733H44.95591c-.59083,2.01882-1.8711,3.93944-5.02247,3.93944-3.59449,0-6.00733-2.46192-6.00733-8.02616,0-5.31788,2.31444-8.17381,5.85963-8.17381A4.72812,4.72812,0,0,1,44.6605,17.5785ZM72.38249,30.23322c-2.60986,0-4.23442-1.13235-4.23442-3.24955a2.74991,2.74991,0,0,1,.78762-1.96993c.68923-.68923,2.01882-1.13235,3.88992-1.62477l1.52638-.39382A33.99649,33.99649,0,0,0,77.99578,21.961v3.10228a5.95594,5.95594,0,0,1-.24632,2.11742c-.78762,2.21561-3.15115,3.05254-5.367,3.05254M68.788,16.84a3.42165,3.42165,0,0,1,1.18166-2.56063,5.38128,5.38128,0,0,1,3.49609-1.03378c2.80665,0,4.28372,1.13244,4.28372,3.00358,0,1.37873-.54152,2.01878-2.36332,2.26508l-1.13255.14767c-5.41651.78791-12.95,1.82189-12.95,8.51873,0,4.92364,4.23441,7.97684,9.65091,7.97684,4.43163,0,6.40136-1.57569,7.583-2.70826h.0491l.14771,2.01859H84.988v-.14749a6.443,6.443,0,0,1-.591-3.34816V19.10511a16.8222,16.8222,0,0,0-.59083-5.17024c-1.32958-4.18545-5.761-5.61341-10.14334-5.61341-6.155,0-10.78369,2.60983-11.12843,8.42012L68.788,16.84Zm37.81559,17.62782h6.89357V0h-6.89357V34.46785Z"/>
    </g>
  </g>
</svg>
