<svg id="Calque_1" data-name="Calque 1" xmlns="http://www.w3.org/2000/svg" viewBox="0 0 2000 2000"><path d="M0,2000V0H210.58V143.55h26.28V286.13h26.28V1000H236.86v143.55H210.58v142.58h-158V2000ZM184.31,1000V857.42h26.27V428.71H184.31V286.13H52.56V1000Z"/><path d="M315.69,2000V0H552.56V143.55h26.27V286.13h26.46V928.71H578.83v143.56H552.56v142.57h26.27v142.58h26.46V2000H552.56V1500H526.28V1357.42H500V1214.84H368.25V2000ZM526.28,928.71V786.13h26.28V428.71H526.28V286.13h-158V928.71Z"/><path d="M736.68,2000V1857.42H710.4V1714.84H684.13V1572.27H657.85V428.71h26.28V286.13H710.4V143.55h26.28V0h158V143.55H921V286.13h26.45V428.71h26.28V1572.27H947.44v142.57H921v142.58H894.71V2000Zm131.75-285.16V1572.27h26.28V1428.71H921V572.27H894.71V428.71H868.43V286.13H763.14V428.71H736.68V572.27H710.4v856.44h26.28v143.56h26.46v142.57Z"/><path d="M1105.11,2000V1857.42h-26.28V1714.84h-26.27V1572.27h-26.28V428.71h26.28V286.13h26.27V143.55h26.28V0h158V143.55h26.28V286.13h26.45V428.71h26.28V714.84h-52.73V572.27h-26.28V428.71h-26.28V286.13H1131.57V428.71h-26.46V572.27h-26.28v856.44h26.28v143.56h26.46v142.57h105.29V1572.27h26.28V1428.71h26.28V1286.13h52.73v286.14h-26.28v142.57h-26.45v142.58h-26.28V2000Z"/><path d="M1394.71,2000V0h52.55V786.13h184.31V0h52.74V2000h-52.74V1072.27H1447.26V2000Z"/><path d="M1736.86,2000V0H2000V286.13H1789.42v500h184.3v286.14h-184.3v642.57H2000V2000Z"/></svg>