<?xml version="1.0" encoding="utf-8"?>
<!-- Generator: Adobe Illustrator 25.4.1, SVG Export Plug-In . SVG Version: 6.00 Build 0)  -->
<svg version="1.1" id="Calque_1" xmlns="http://www.w3.org/2000/svg" xmlns:xlink="http://www.w3.org/1999/xlink" x="0px" y="0px"
	 viewBox="0 0 2000 2000" style="enable-background:new 0 0 2000 2000;" xml:space="preserve">
<g>
	<path d="M0,2000V0h59.6v786.1h209.1V0h59.8v2000h-59.8v-927.7H59.6V2000H0z"/>
	<path d="M447.8,2000v-142.6H418v-142.6h-29.8V0h59.6v1572.3h29.8v142.6h119.7v-142.6h29.8V0h59.6v1714.8h-29.8v142.6h-29.8V2000
		H447.8z"/>
	<path d="M746.3,2000V0h89.4v286.1h30v428.7h29.8v428.7h29.8v428.7h30v-428.7h29.8V714.8h29.8V286.1h29.8V0h89.6v2000h-59.6V714.8
		h-30v428.7H1015v428.7h-29.8V2000h-89.6v-427.7h-29.8v-428.7h-30V714.8h-29.8V2000H746.3z"/>
	<path d="M1194.1,2000v-427.7h29.8v-428.7h29.8V714.8h29.8V286.1h30V0h89.6v286.1h29.8v428.7h29.8v428.7h29.8v428.7h30V2000h-59.8
		v-427.7h-209.1V2000H1194.1z M1433,1286.1v-142.6h-29.8V714.8h-30V428.7h-29.8v286.1h-29.8v428.7h-30v142.6H1433z"/>
	<path d="M1582.2,2000V0h59.6v2000H1582.2z"/>
	<path d="M1701.5,2000V0h89.4v286.1h30v286.1h29.8v285.2h29.8v286.1h30v285.2h29.8V0h59.6v2000h-89.4v-285.2h-30v-286.1h-29.8
		v-285.2h-29.8V857.4h-30V572.3h-29.8V2000H1701.5z"/>
</g>
</svg>
