<?xml version="1.0" encoding="utf-8"?>
<!-- Generator: Adobe Illustrator 25.4.1, SVG Export Plug-In . SVG Version: 6.00 Build 0)  -->
<svg version="1.1" id="Calque_1" xmlns="http://www.w3.org/2000/svg" xmlns:xlink="http://www.w3.org/1999/xlink" x="0px" y="0px"
	 viewBox="0 0 2000 2000" style="enable-background:new 0 0 2000 2000;" xml:space="preserve">
<style type="text/css">
	.st0{fill:#FFFFFF;}
</style>
<rect class="st0" width="2000" height="2000"/>
<g>
	<path d="M420.16,1000v-92.57h-92.57v-463.5h92.57v-93.21h324.64v93.21h92.57v463.5h-92.57V1000H420.16z M698.51,907.43v-463.5
		H466.44v463.5H698.51z M652.22,1649.27v-185.14h92.57v-185.78h92.57v-185.14h93.21V907.43h92.57V722.28h92.57V536.5h93.21V350.73
		h138.86V536.5h-92.57v185.78H1162v185.14h-92.57v185.78h-92.57v185.14h-92.57v185.78h-93.21v185.14H652.22z M1255.21,1649.27
		v-92.57H1162v-463.5h93.21V1000h324.64v93.21h92.57v463.5h-92.57v92.57H1255.21z M1533.56,1556.7v-463.5h-232.06v463.5H1533.56z"/>
</g>
</svg>
