<svg id="Calque_1" data-name="Calque 1" xmlns="http://www.w3.org/2000/svg" viewBox="0 0 2000 2000"><path d="M0,2000V0H310.8V143.55h38.78V286.13h38.78V857.42H349.58V1000h38.78v143.55h39.05v571.29H388.36v142.58H349.58V2000ZM272,857.42V714.84H310.8V428.71H272V286.13H77.57V857.42Zm38.79,857.42V1572.27h38.78V1286.13H310.8V1143.55H77.57v571.29Z"/><path d="M505,2000V0H854.56V143.55h38.79V286.13h39V928.71h-39v143.56H854.56v142.57h38.79v142.58h39V2000H854.56V1500H815.78V1357.42H777V1214.84H582.55V2000ZM815.78,928.71V786.13h38.78V428.71H815.78V286.13H582.55V928.71Z"/><path d="M1087.53,2000V1857.42h-38.79V1714.84H1010V0h77.57V1572.27h38.78v142.57H1282V1572.27h38.78V0h77.57V1714.84h-38.79v142.58h-38.78V2000Z"/><path d="M1475.89,2000V0h77.57V2000Z"/><path d="M1767,2000V286.13H1611.64V0H2000V286.13H1844.6V2000Z"/></svg>