<?xml version="1.0" encoding="utf-8"?>
<!-- Generator: Adobe Illustrator 25.4.1, SVG Export Plug-In . SVG Version: 6.00 Build 0)  -->
<svg version="1.1" id="Calque_1" xmlns="http://www.w3.org/2000/svg" xmlns:xlink="http://www.w3.org/1999/xlink" x="0px" y="0px"
	 viewBox="0 0 2000 2000" style="enable-background:new 0 0 2000 2000;" xml:space="preserve">
<g>
	<path d="M0,2000v-427.7h39.2v-428.7h39.2V714.8h39.2V286.1h39.4V0h117.8v286.1h39.2v428.7H353v428.7h39.2v428.7h39.4V2000H353
		v-427.7H78.3V2000H0z M313.8,1286.1v-142.6h-39.2V714.8h-39.4V428.7h-39.2v286.1h-39.2v428.7h-39.4v142.6H313.8z"/>
	<path d="M607.8,2000v-142.6h-39.2v-142.6h-39.2v-142.6h-39.2V428.7h39.2V286.1h39.2V143.6h39.2V0h235.5v143.6h39.2v142.6h39.4
		v142.6h39.2v286.1h-78.6V572.3h-39.2V428.7h-39.2V286.1H647.3v142.6h-39.4v143.6h-39.2v856.4h39.2v143.6h39.4v142.6h156.9v-142.6
		h39.2v-143.6h39.2v-142.6h78.6v286.1h-39.2v142.6h-39.4v142.6h-39.2V2000H607.8z"/>
	<path d="M1157.2,2000V286.1h-156.9V0h392.2v286.1h-156.9V2000H1157.2z"/>
	<path d="M1451.2,2000V0h78.3v2000H1451.2z"/>
	<path d="M1607.8,2000V0H2000v286.1h-313.8v571.3h274.7v286.1h-274.7V2000H1607.8z"/>
</g>
</svg>
