<?xml version="1.0" encoding="utf-8"?>
<!-- Generator: Adobe Illustrator 25.4.1, SVG Export Plug-In . SVG Version: 6.00 Build 0)  -->
<svg version="1.1" id="Calque_1" xmlns="http://www.w3.org/2000/svg" xmlns:xlink="http://www.w3.org/1999/xlink" x="0px" y="0px"
	 viewBox="0 0 2000 2000" style="enable-background:new 0 0 2000 2000;" xml:space="preserve">
<g>
	<path d="M0,2000V0h254v143.6h31.7v142.6h31.7V1000h-31.7v143.6H254v142.6H63.4V2000H0z M222.3,1000V857.4H254V428.7h-31.7V286.1
		H63.4V1000H222.3z"/>
	<path d="M333.3,2000v-427.7H365v-428.7h31.7V714.8h31.7V286.1h31.9V0h95.3v286.1h31.7v428.7H619v428.7h31.7v428.7h31.9V2000H619
		v-427.7H396.7V2000H333.3z M587.3,1286.1v-142.6h-31.7V714.8h-31.9V428.7H492v286.1h-31.7v428.7h-31.9v142.6H587.3z"/>
	<path d="M793.6,2000v-142.6h-31.7v-142.6h-31.7v-286.1h63.4v143.6h31.7v142.6h158.9v-142.6h31.7v-286.1h-31.7v-142.6H825.3V1000
		h-63.4V857.4h-31.7V286.1h31.7V143.6h31.7V0H1016v143.6h31.7v142.6h31.9v286.1H1016V428.7h-31.7V286.1H825.3v142.6h-31.7v286.1
		h31.7v142.6h158.9V1000h63.4v143.6h31.9v571.3h-31.9v142.6H1016V2000H793.6z"/>
	<path d="M1206.4,2000v-142.6h-31.7v-142.6H1143v-286.1h63.4v143.6h31.7v142.6H1397v-142.6h31.7v-286.1H1397v-142.6h-158.9V1000
		h-63.4V857.4H1143V286.1h31.7V143.6h31.7V0h222.3v143.6h31.7v142.6h31.9v286.1h-63.6V428.7H1397V286.1h-158.9v142.6h-31.7v286.1
		h31.7v142.6H1397V1000h63.4v143.6h31.9v571.3h-31.9v142.6h-31.7V2000H1206.4z"/>
	<path d="M1555.7,2000V0h63.4v2000H1555.7z"/>
	<path d="M1682.6,2000V0H2000v286.1h-254v571.3h222.3v286.1H1746V2000H1682.6z"/>
</g>
</svg>
