<svg id="Calque_1" data-name="Calque 1" xmlns="http://www.w3.org/2000/svg" viewBox="0 0 1999.47 2000"><path d="M0,2000V0H314.9V286.13h-252v500H283.45v286.14H62.89v642.57h252V2000Z"/><path d="M488.07,2000V286.13h-126V0H677V286.13H551V2000Z"/><path d="M724.14,2000V0H1007.6V143.55H1039V286.13h31.67V928.71H1039v143.56H1007.6v142.57H1039v142.58h31.67V2000H1007.6V1500H976.15V1357.42H944.7V1214.84H787V2000Zm252-1071.29V786.13h31.45V428.71H976.15V286.13H787V928.71Z"/><path d="M1227.94,2000V1857.42h-31.45V1714.84h-31.44V1572.27H1133.6V428.71h31.45V286.13h31.44V143.55h31.45V0h189.11V143.55h31.45V286.13h31.66V428.71h31.45V1572.27h-31.45v142.57H1448.5v142.58h-31.45V2000Zm157.67-285.16V1572.27h31.44V1428.71h31.45V572.27h-31.45V428.71h-31.44V286.13h-126V428.71h-31.66V572.27h-31.45v856.44h31.45v143.56h31.66v142.57Z"/><path d="M1574.5,2000V0h62.9V2000Z"/><path d="M1810.57,2000V286.13h-126V0h314.9V286.13h-126V2000Z"/></svg>