<svg id="Calque_1" data-name="Calque 1" xmlns="http://www.w3.org/2000/svg" viewBox="0 0 2000 2000"><path d="M0,2000V0H454.46V286.13H90.77V857.42H409.08v286.13H90.77V2000Z"/><path d="M431.77,2000V1572.27h45.38V1143.55h45.39V714.84h45.38V286.13h45.7V0H750.08V286.13h45.38V714.84h45.39v428.71h45.38v428.72h45.69V2000H840.85V1572.27H522.54V2000Zm363.69-713.87V1143.55H750.08V714.84h-45.7V428.71H659V714.84H613.62v428.71h-45.7v142.58Z"/><path d="M1090.77,2000V1857.42h-45.39V1714.84H1000V1428.71h90.77v143.56h45.38v142.57h227.54V1572.27h45.39V1286.13h-45.39V1143.55H1136.15V1000h-90.77V857.42H1000V286.13h45.38V143.55h45.39V0h318.31V143.55h45.38V286.13h45.7V572.27h-91.08V428.71h-45.39V286.13H1136.15V428.71h-45.38V714.84h45.38V857.42h227.54V1000h90.77v143.55h45.7v571.29h-45.7v142.58h-45.38V2000Z"/><path d="M1727.39,2000V286.13H1545.54V0H2000V286.13H1818.15V2000Z"/></svg>