<svg id="Calque_1" data-name="Calque 1" xmlns="http://www.w3.org/2000/svg" viewBox="0 0 2000 2000"><path d="M0,2000V0H351.77V143.55h43.9V286.13h43.9V857.42h-43.9V1000h43.9v143.55h44.19v571.29H439.57v142.58h-43.9V2000ZM307.88,857.42V714.84h43.89V428.71H307.88V286.13H87.79V857.42Zm43.89,857.42V1572.27h43.9V1286.13h-43.9V1143.55h-264v571.29Z"/><path d="M571.56,2000V0h87.79V1714.84H967.23V2000Z"/><path d="M1033.07,2000V0h439.57V286.13H1120.87v500h307.87v286.14H1120.87v642.57h351.77V2000Z"/><path d="M1648.23,2000V1857.42h-43.9V1714.84h-43.9V0h87.8V1572.27h43.89v142.57h176.19V1572.27h43.9V0H2000V1714.84h-43.9v142.58h-43.89V2000Z"/></svg>