<svg id="Calque_1" data-name="Calque 1" xmlns="http://www.w3.org/2000/svg" viewBox="0 0 2000 2000"><path d="M0,2000V0H285.75V143.55h31.7V286.13h31.91V928.71H317.45v143.56h-31.7v142.57h31.7v142.58h31.91V2000H285.75V1500H254V1357.42h-31.7V1214.84H63.4V2000ZM254,928.71V786.13h31.71V428.71H254V286.13H63.4V928.71Z"/><path d="M507.87,2000V1857.42h-31.7V1714.84h-31.7V1572.27h-31.7V428.71h31.7V286.13h31.7V143.55h31.7V0H698.51V143.55h31.7V286.13h31.92V428.71h31.7V1572.27h-31.7v142.57H730.21v142.58h-31.7V2000Zm158.94-285.16V1572.27h31.7V1428.71h31.7V572.27h-31.7V428.71h-31.7V286.13h-127V428.71H507.87V572.27h-31.7v856.44h31.7v143.56h31.92v142.57Z"/><path d="M920.64,2000V1857.42h-31.7V1714.84h-31.7V0h63.4V1572.27h31.7v142.57h127.24V1572.27h31.7V0h63.4V1714.84H1143v142.58h-31.7V2000Z"/><path d="M1333.19,2000V1857.42h-31.7V1714.84h-31.7V1572.27h-31.71V428.71h31.71V286.13h31.7V143.55h31.7V0h190.64V143.55h31.7V286.13h31.92V428.71h31.7V714.84h-63.62V572.27h-31.7V428.71h-31.7V286.13h-127V428.71h-31.92V572.27h-31.7v856.44h31.7v143.56h31.92v142.57h127V1572.27h31.7V1428.71h31.7V1286.13h-95.1V1000h158.72V2000h-63.62V1714.84h-31.7v142.58h-31.7V2000Z"/><path d="M1682.55,2000V0H2000V286.13H1746v500H1968.3v286.14H1746v642.57h254V2000Z"/></svg>