<svg id="Calque_1" data-name="Calque 1" xmlns="http://www.w3.org/2000/svg" viewBox="0 0 2000 2000"><path d="M0,2000V0H106.53V1714.84H480.12V2000Z"/><path d="M666.55,2000V1857.42H613.28V1714.84H560V1572.27H506.75V428.71H560V286.13h53.27V143.55h53.27V0H986.87V143.55h53.26V286.13h53.63V428.71H1147V1572.27h-53.27v142.57h-53.63v142.58H986.87V2000ZM933.6,1714.84V1572.27h53.27V1428.71h53.26V572.27H986.87V428.71H933.6V286.13H720.18V428.71H666.55V572.27H613.28v856.44h53.27v143.56h53.63v142.57Z"/><path d="M1253.56,2000V0h106.53V2000Z"/><path d="M1466.62,2000V0h159.79V286.13H1680V572.27h53.27V857.42h53.26v286.13h53.63v285.16h53.27V0H2000V2000H1840.2V1714.84h-53.63V1428.71h-53.26V1143.55H1680V857.42h-53.63V572.27h-53.26V2000Z"/></svg>