<svg id="Calque_1" data-name="Calque 1" xmlns="http://www.w3.org/2000/svg" viewBox="0 0 2000 2000"><path d="M95.09,2000V1857.42H63.4V1714.84H31.7V1572.27H0V428.71H31.7V286.13H63.4V143.55H95.09V0H285.71V143.55h31.7V286.13h31.92V428.71H381V714.84H317.41V572.27h-31.7V428.71H254V286.13H127V428.71H95.09V572.27H63.4v856.44H95.09v143.56H127v142.57H254V1572.27h31.69V1428.71h31.7V1286.13H222.32V1000H381V2000H317.41V1714.84h-31.7v142.58H254V2000Z"/><path d="M444.42,2000V0H730.13V143.55h31.7V286.13h31.92V928.71H761.83v143.56h-31.7v142.57h31.7v142.58h31.92V2000H730.13V1500H698.44V1357.42h-31.7V1214.84H507.82V2000Zm254-1071.29V786.13h31.69V428.71H698.44V286.13H507.82V928.71Z"/><path d="M857.14,2000V1572.27h31.7V1143.55h31.7V714.84h31.7V286.13h31.91V0h95.31V286.13h31.7V714.84h31.7v428.71h31.69v428.72h31.92V2000h-63.61V1572.27H920.54V2000Zm254-713.87V1143.55h-31.7V714.84h-31.91V428.71h-31.7V714.84h-31.7v428.71H952.24v142.58Z"/><path d="M1269.87,2000V0H1365V286.13h31.91V572.27h31.7V857.42h31.7v286.13h31.91v285.16h31.7V0h63.4V2000h-95.1V1714.84h-31.91V1428.71h-31.7V1143.55h-31.7V857.42H1365V572.27h-31.7V2000Z"/><path d="M1650.67,2000V0h254V143.55h31.7V286.13h31.7V428.71H2000V1572.27h-31.91v142.57h-31.7v142.58h-31.7V2000ZM1873,1714.84V1572.27h31.7V1428.71h31.7V572.27h-31.7V428.71H1873V286.13H1714.07V1714.84Z"/></svg>