<svg id="Calque_1" data-name="Calque 1" xmlns="http://www.w3.org/2000/svg" viewBox="0 0 2000 2000"><path d="M0,2000V0H330.09V143.55h41.19V286.13h41.19V1000H371.28v143.55H330.09v142.58H82.38V2000ZM288.9,1000V857.42h41.19V428.71H288.9V286.13H82.38V1000Z"/><path d="M494.85,2000V0H907.32V286.13H577.23v500h288.9v286.14H577.23v642.57H907.32V2000Z"/><path d="M1134.15,2000V286.13h-165V0h412.47V286.13h-165V2000Z"/><path d="M1443.36,2000V0h82.38V2000Z"/><path d="M1752.57,2000V286.13h-165V0H2000V286.13H1835V2000Z"/></svg>