<?xml version="1.0" encoding="utf-8"?>
<!-- Generator: Adobe Illustrator 25.4.1, SVG Export Plug-In . SVG Version: 6.00 Build 0)  -->
<svg version="1.1" id="Calque_1" xmlns="http://www.w3.org/2000/svg" xmlns:xlink="http://www.w3.org/1999/xlink" x="0px" y="0px"
	 viewBox="0 0 2000 2000" style="enable-background:new 0 0 2000 2000;" xml:space="preserve">
<g>
	<path d="M165,2000V286.1H0V0h412.3v286.1h-165V2000H165z"/>
	<path d="M474.1,2000V0h371.2v143.6h41.2v142.6h41.5v642.6h-41.5v143.6h-41.2v142.6h41.2v142.6h41.5V2000h-82.6v-500h-41.2v-142.6
		h-41.2v-142.6H556.5V2000H474.1z M804.1,928.7V786.1h41.2V428.7h-41.2V286.1H556.5v642.6H804.1z"/>
	<path d="M1092.7,2000v-142.6h-41.2v-142.6h-41.2V0h82.4v1572.3h41.2v142.6h165.3v-142.6h41.2V0h82.4v1714.8h-41.2v142.6h-41.2V2000
		H1092.7z"/>
	<path d="M1628.6,2000v-142.6h-41.2v-142.6h-41.2v-142.6H1505V428.7h41.2V286.1h41.2V143.6h41.2V0h247.6v143.6h41.2v142.6h41.5
		v142.6h41.2v286.1h-82.6V572.3h-41.2V428.7H1835V286.1h-165v142.6h-41.5v143.6h-41.2v856.4h41.2v143.6h41.5v142.6h165v-142.6h41.2
		v-143.6h41.2v-142.6h82.6v286.1h-41.2v142.6h-41.5v142.6h-41.2V2000H1628.6z"/>
</g>
</svg>
