<svg id="Calque_1" data-name="Calque 1" xmlns="http://www.w3.org/2000/svg" viewBox="0 0 2000 2000"><path d="M78.83,2000V1857.42H52.56V1714.84H26.28V1572.27H0V428.71H26.28V286.13H52.56V143.55H78.83V0h158V143.55h26.28V286.13H289.6V428.71h26.27V714.84H263.14V572.27H236.86V428.71H210.58V286.13H105.29V428.71H78.83V572.27H52.56v856.44H78.83v143.56h26.46v142.57H210.58V1572.27h26.28V1428.71h26.28V1286.13H184.31V1000H315.87V2000H263.14V1714.84H236.86v142.58H210.58V2000Z"/><path d="M368.43,2000V1572.27h26.28V1143.55H421V714.84h26.27V286.13h26.46V0h79V286.13H579V714.84h26.28v428.71h26.28v428.72H658V2000H605.29V1572.27H421V2000ZM579,1286.13V1143.55H552.74V714.84H526.28V428.71H500V714.84H473.72v428.71H447.26v142.58Z"/><path d="M763.14,2000V1857.42H736.86V1714.84H710.58V0h52.56V1572.27h26.28v142.57H894.89V1572.27h26.28V0h52.55V1714.84H947.44v142.58H921.17V2000Z"/><path d="M1105.11,2000V1857.42h-26.28V1714.84h-26.27V1572.27h-26.28V428.71h26.28V286.13h26.27V143.55h26.28V0h158V143.55h26.28V286.13h26.45V428.71h26.28V714.84h-52.73V572.27h-26.28V428.71h-26.28V286.13H1131.57V428.71h-26.46V572.27h-26.28v856.44h26.28v143.56h26.46v142.57h105.29V1572.27h26.28V1428.71h26.28V1286.13h52.73v286.14h-26.28v142.57h-26.45v142.58h-26.28V2000Z"/><path d="M1394.71,2000V0h52.55V786.13h184.31V0h52.74V2000h-52.74V1072.27H1447.26V2000Z"/><path d="M1736.86,2000V0H2000V286.13H1789.42v500h184.3v286.14h-184.3v642.57H2000V2000Z"/></svg>