<svg id="Calque_1" data-name="Calque 1" xmlns="http://www.w3.org/2000/svg" viewBox="0 0 2000 2000"><path d="M0,2000V0H246.24V143.55H277V286.13h30.72V428.71h30.94V1572.27H307.69v142.57H277v142.58H246.24V2000Zm215.51-285.16V1572.27h30.73V1428.71H277V572.27H246.24V428.71H215.51V286.13H61.45V1714.84Z"/><path d="M400.08,2000V0h277V143.55h30.73V286.13h30.93V928.71H707.78v143.56H677.05v142.57h30.73v142.58h30.93V2000H677.05V1500H646.32V1357.42H615.6V1214.84H461.54V2000ZM646.32,928.71V786.13h30.73V428.71H646.32V286.13H461.54V928.71Z"/><path d="M892.35,2000V1857.42H861.62V1714.84H830.9V1572.27H800.17V428.71H830.9V286.13h30.72V143.55h30.73V0h184.78V143.55h30.73V286.13h30.94V428.71h30.73V1572.27H1138.8v142.57h-30.94v142.58h-30.73V2000Zm154.06-285.16V1572.27h30.72V1428.71h30.73V572.27h-30.73V428.71h-30.72V286.13H923.29V428.71H892.35V572.27H861.62v856.44h30.73v143.56h30.94v142.57Z"/><path d="M1231,2000V0h61.45V2000Z"/><path d="M1461.64,2000V286.13H1338.52V0h307.7V286.13H1523.1V2000Z"/><path d="M1692.31,2000V0H2000V286.13H1753.76v500h215.51v286.14H1753.76v642.57H2000V2000Z"/></svg>