<svg id="Calque_1" data-name="Calque 1" xmlns="http://www.w3.org/2000/svg" viewBox="0 0 2000 2000"><path d="M96.64,2000V1857.42H64.42V1714.84H32.21V1572.27H0V428.71H32.21V286.13H64.42V143.55H96.64V0H290.35V143.55h32.21V286.13H355V428.71H387.2V714.84H322.56V572.27H290.35V428.71H258.14V286.13H129.07V428.71H96.64V572.27H64.42v856.44H96.64v143.56h32.43v142.57H258.14V1572.27h32.21V1428.71h32.21V1286.13H387.2v286.14H355v142.57H322.56v142.58H290.35V2000Z"/><path d="M435.52,2000V1572.27h32.21V1143.55h32.21V714.84h32.22V286.13h32.43V0h96.86V286.13h32.21V714.84h32.21v428.71h32.21v428.72h32.43V2000H725.87V1572.27H499.94V2000Zm258.14-713.87V1143.55H661.45V714.84H629V428.71H596.8V714.84H564.59v428.71H532.16v142.58Z"/><path d="M854.94,2000V0h64.42V1714.84h225.92V2000Z"/><path d="M1193.6,2000V0h96.64V286.13h32.43V714.84h32.21v428.71h32.21v428.72h32.44V1143.55h32.21V714.84H1484V286.13h32.21V0H1613V2000h-64.43V714.84h-32.43v428.71H1484v428.72h-32.21V2000h-96.86V1572.27h-32.21V1143.55h-32.43V714.84H1258V2000Z"/><path d="M1677.44,2000V0H2000V286.13H1741.86v500h225.93v286.14H1741.86v642.57H2000V2000Z"/></svg>