<svg id="Calque_1" data-name="Calque 1" xmlns="http://www.w3.org/2000/svg" viewBox="0 0 1999.47 2000"><path d="M0,2000V0H66V1714.84H297.46V2000Z"/><path d="M347,2000V1572.27h33V1143.55h33V714.84h33V286.13h33.23V0h99.22V286.13h33V714.84h33v428.71h33v428.72h33.23V2000H644.41V1572.27H413V2000Zm264.45-713.87V1143.55h-33V714.84H545.19V428.71h-33V714.84h-33v428.71H446v142.58Z"/><path d="M776.64,2000V0H1074.1V143.55h33V286.13h33.23V928.71H1107.1v143.56h-33v142.57h33v142.58h33.23V2000H1074.1V1500h-33V1357.42h-33V1214.84H842.64V2000ZM1041.1,928.71V786.13h33V428.71h-33V286.13H842.64V928.71Z"/><path d="M1305.33,2000V1857.42h-33V1714.84h-33V1572.27h-33V428.71h33V286.13h33V143.55h33V0h198.45V143.55h33V286.13H1570V428.71h33V714.84h-66.23V572.27h-33V428.71h-33V286.13H1338.56V428.71h-33.23V572.27h-33v856.44h33v143.56h33.23v142.57h132.22V1572.27h33V1428.71h33V1286.13h-99V1000H1603V2000h-66.23V1714.84h-33v142.58h-33V2000Z"/><path d="M1669,2000V0h330.46V286.13H1735v500h231.46v286.14H1735v642.57h264.46V2000Z"/></svg>