<svg id="Calque_1" data-name="Calque 1" xmlns="http://www.w3.org/2000/svg" viewBox="0 0 1999.95 2000"><path d="M214.06,2000V1857.42H142.72V1714.84H71.39V1572.27H.05V428.71H71.39V286.13h71.33V143.55h71.34V0h429V143.55h71.34V286.13h71.83V428.71h71.34V1572.27H786.25v142.57H714.42v142.58H643.08V2000Zm357.68-285.16V1572.27h71.34V1428.71h71.34V572.27H643.08V428.71H571.74V286.13H285.89V428.71H214.06V572.27H142.72v856.44h71.34v143.56h71.83v142.57Z" transform="translate(-0.05)"/><path d="M1143,2000V1857.42h-71.34V1714.84h-71.34V0H1143V1572.27h71.34v142.57h286.33V1572.27H1572V0h142.68V1714.84H1643.3v142.58H1572V2000Z" transform="translate(-0.05)"/><path d="M1857.32,2000V0H2000V2000Z" transform="translate(-0.05)"/></svg>