<svg id="Calque_1" data-name="Calque 1" xmlns="http://www.w3.org/2000/svg" viewBox="0 0 2000 2000"><path d="M0,2000V0H166.44V286.13h55.87V572.27h55.48V857.42h55.48v286.13h55.86v285.16h55.48V0h111V2000H389.13V1714.84H333.27V1428.71H277.79V1143.55H222.31V857.42H166.44V572.27H111V2000Z"/><path d="M833,2000V1857.42H777.5V1714.84H722V1572.27H666.54V428.71H722V286.13H777.5V143.55H833V0h333.65V143.55h55.49V286.13H1278V428.71h55.48V1572.27H1278v142.57h-55.86v142.58h-55.49V2000Zm278.17-285.16V1572.27h55.48V1428.71h55.49V572.27h-55.49V428.71h-55.48V286.13H888.85V428.71H833V572.27H777.5v856.44H833v143.56h55.87v142.57Z"/><path d="M1444.42,2000V0h166.45V286.13h55.86V572.27h55.48V857.42h55.48v286.13h55.87v285.16H1889V0h111V2000H1833.56V1714.84h-55.87V1428.71h-55.48V1143.55h-55.48V857.42h-55.86V572.27h-55.48V2000Z"/></svg>